HIERARCHY
ROOT Hips
{
	OFFSET -3.958830 18.904000 13.208200
	CHANNELS 6 Xposition Yposition Zposition Zrotation Yrotation Xrotation 
	JOINT LHipJoint
	{
		OFFSET 0.000000 0.000000 0.000000
		CHANNELS 3 Zrotation Yrotation Xrotation
		JOINT LeftUpLeg
		{
			OFFSET 1.800000 -1.400000 0.085000
			CHANNELS 3 Zrotation Yrotation Xrotation
			JOINT LeftLeg
			{
				OFFSET 2.215000 -6.000000 0.000000
				CHANNELS 3 Zrotation Yrotation Xrotation
				JOINT LeftFoot
				{
					OFFSET 2.500000 -6.900000 0.000000
					CHANNELS 3 Zrotation Yrotation Xrotation
					JOINT LeftToeBase
					{
						OFFSET 0.200000 -0.500000 1.950000
						CHANNELS 3 Zrotation Yrotation Xrotation
						End Site
						{
							OFFSET 0.000000 0.000000 0.000000
						}
					}
				}
			}
		}
	}
	JOINT RHipJoint
	{
		OFFSET 0.000000 0.000000 0.000000
		CHANNELS 3 Zrotation Yrotation Xrotation
		JOINT RightUpLeg
		{
			OFFSET -1.800000 -1.400000 0.085000
			CHANNELS 3 Zrotation Yrotation Xrotation
			JOINT RightLeg
			{
				OFFSET -2.215000 -6.000000 0.000000
				CHANNELS 3 Zrotation Yrotation Xrotation
				JOINT RightFoot
				{
					OFFSET -2.500000 -6.900000 0.000000
					CHANNELS 3 Zrotation Yrotation Xrotation
					JOINT RightToeBase
					{
						OFFSET -0.200000 -0.500000 1.950000
						CHANNELS 3 Zrotation Yrotation Xrotation
						End Site
						{
							OFFSET 0.000000 0.000000 0.000000
						}
					}
				}
			}
		}
	}
	JOINT LowerBack
	{
		OFFSET 0.000000 0.000000 0.000000
		CHANNELS 3 Zrotation Yrotation Xrotation
		JOINT Spine
		{
			OFFSET -0.087000 1.940000 -0.288900
			CHANNELS 3 Zrotation Yrotation Xrotation
			JOINT Spine1
			{
				OFFSET 0.000000 1.950000 0.060000
				CHANNELS 3 Zrotation Yrotation Xrotation
				JOINT Neck
				{
					OFFSET 0.000000 0.000000 0.000000
					CHANNELS 3 Zrotation Yrotation Xrotation
					JOINT Neck1
					{
						OFFSET 0.000000 1.600000 0.340000
						CHANNELS 3 Zrotation Yrotation Xrotation
						JOINT Head
						{
							OFFSET 0.000000 1.667000 -0.240000
							CHANNELS 3 Zrotation Yrotation Xrotation
							End Site
							{
								OFFSET 0.000000 0.000000 0.000000
							}
						}
					}
				}
				JOINT LeftShoulder
				{
					OFFSET 0.000000 0.000000 0.000000
					CHANNELS 3 Zrotation Yrotation Xrotation
					JOINT LeftArm
					{
						OFFSET 2.700000 1.550000 -0.730000
						CHANNELS 3 Zrotation Yrotation Xrotation
						JOINT LeftForeArm
						{
							OFFSET 5.450000 0.000000 0.000000
							CHANNELS 3 Zrotation Yrotation Xrotation
							JOINT LeftHand
							{
								OFFSET 3.450000 0.000000 0.000000
								CHANNELS 3 Zrotation Yrotation Xrotation
								JOINT LeftHandIndex1
								{
									OFFSET 0.750000 0.000000 0.000000
									CHANNELS 3 Zrotation Yrotation Xrotation
									End Site
									{
										OFFSET 0.000000 0.000000 0.000000
									}
								}
							}
						}
					}
				}
				JOINT RightShoulder
				{
					OFFSET 0.000000 0.000000 0.000000
					CHANNELS 3 Zrotation Yrotation Xrotation
					JOINT RightArm
					{
						OFFSET -2.700000 1.550000 -0.730000
						CHANNELS 3 Zrotation Yrotation Xrotation
						JOINT RightForeArm
						{
							OFFSET -5.450000 0.000000 0.000000
							CHANNELS 3 Zrotation Yrotation Xrotation
							JOINT RightHand
							{
								OFFSET -3.450000 0.000000 0.000000
								CHANNELS 3 Zrotation Yrotation Xrotation
								JOINT RightHandIndex1
								{
									OFFSET -0.750000 0.000000 0.000000
									CHANNELS 3 Zrotation Yrotation Xrotation
									End Site
									{
										OFFSET 0.000000 0.000000 0.000000
									}
								}
							}
						}
					}
				}
			}
		}
	}
}
MOTION
Frames: 9
Frame Time: 0.016667
0.108930 17.237670 -0.908620 -4.389394 0.258838 12.993841 -15.376071 12.415670 2.888073 -2.756480 -1.509121 -10.142080 -6.882659 3.068715 0.930001 -0.923725 5.074369 3.728678 0.008810 -0.612680 -0.427010 18.239243 -10.113710 2.850082 -25.267020 1.124240 -21.807447 2.553464 -3.999271 0.508793 -0.364506 -4.620329 2.552632 -0.064870 2.107890 1.625540 -3.308749 -1.253035 -6.809338 1.412371 0.923751 -0.625604 5.788816 -0.251093 3.175114 1.814154 2.872843 -7.066549 4.938809 8.142560 16.803274 -6.021940 7.577680 2.480320 -12.399723 -2.369495 1.708380 -55.488102 -8.117035 3.266017 -30.511892 -16.334239 1.484499 -5.151496 3.302014 0.474300 1.474650 -0.300230 0.902350 9.929761 0.885183 2.106952 56.085814 7.988505 -0.959602 33.899639 26.922446 4.987414 1.499539 -2.091325 -0.493580 0.361470 0.412220 0.315550 
0.092500 17.235570 -0.906570 -4.190128 0.316427 12.951109 -15.395983 12.402766 2.897558 -2.676100 -1.407585 -9.679998 -7.168206 3.068315 0.322541 -0.910762 5.137131 3.718010 -0.000410 -0.622960 -0.423870 18.226163 -10.067158 2.844265 -25.530147 1.137533 -21.207433 2.344738 -3.956897 0.022150 -0.372334 -4.672389 2.544295 -0.067130 2.113740 1.614260 -3.261764 -1.319918 -6.809252 0.446745 1.029805 -0.818216 6.427485 -0.157865 3.109131 1.668193 3.064979 -7.029284 5.246069 8.047560 16.857767 -6.125900 7.682390 2.515420 -12.480958 -2.288339 1.689960 -55.319920 -8.156337 3.456870 -30.771669 -16.087360 1.514595 -5.156789 3.282739 0.478120 1.478950 -0.305960 0.898170 10.342526 0.745181 2.021748 55.608884 7.903422 -0.890065 33.547660 26.732927 4.906805 1.501354 -2.072835 -0.507470 0.373380 0.413230 0.309560 
0.078070 17.234120 -0.904190 -4.181125 0.439556 12.746597 -15.406206 12.415769 2.894437 -2.479427 -1.329866 -9.342438 -7.191865 3.084026 0.172460 -0.903022 5.158480 3.706813 -0.009850 -0.633950 -0.416360 18.212518 -10.056962 2.841068 -25.429264 1.161921 -20.553852 2.336802 -3.937540 -0.358773 -0.385272 -4.684309 2.545829 -0.078310 2.094890 1.597850 -3.227804 -1.363398 -6.812404 -0.044320 1.084317 -0.818930 6.699941 -0.114000 3.155733 1.641973 3.190828 -7.106807 5.450113 7.917139 17.195147 -6.124870 7.727650 2.212180 -12.537053 -2.472286 1.785225 -55.151860 -8.091551 3.375297 -30.708934 -16.231505 1.537475 -5.139253 3.255754 0.500110 1.458250 -0.293490 0.884610 10.467146 0.874808 2.088417 55.556026 7.858264 -0.989414 33.098964 26.568829 4.794295 1.512451 -2.036525 -0.514880 0.382150 0.417290 0.299090 
0.064130 17.233280 -0.902550 -4.239789 0.424921 12.530180 -15.408030 12.429398 2.892799 -2.208830 -1.258276 -9.086237 -7.344220 3.136851 0.127159 -0.897174 5.212542 3.702367 -0.041470 -0.670270 -0.439630 18.204593 -10.070825 2.829863 -25.119776 1.203182 -20.086067 2.326852 -3.929075 -0.557370 -0.381267 -4.683785 2.570440 -0.096430 2.117470 1.584140 -3.213319 -1.367502 -6.811336 -0.290399 1.162991 -0.781138 6.824338 -0.038791 3.191297 1.594129 3.222781 -7.213515 5.503272 7.984328 17.437596 -6.035730 7.773670 2.274060 -12.554076 -2.731113 1.901816 -54.966385 -7.983539 3.284747 -30.666117 -16.410538 1.554115 -5.148308 3.215638 0.513250 1.463270 -0.302050 0.883050 10.582060 1.151535 2.199349 55.522395 7.867973 -1.084563 32.602224 26.388796 4.655108 1.509247 -1.995683 -0.536930 0.410200 0.436590 0.297580 
0.052800 17.236930 -0.901330 -4.394553 0.283399 12.203192 -15.411111 12.442298 2.901886 -1.862096 -1.170952 -8.672053 -7.541337 3.184918 -0.085959 -0.894034 5.275613 3.683802 -0.069540 -0.721320 -0.426760 18.193680 -10.090330 2.817607 -24.656139 1.252250 -19.636099 2.275918 -3.914635 -0.755359 -0.386070 -4.643502 2.592781 -0.129510 2.104590 1.567570 -3.192074 -1.360012 -6.827482 -0.289726 1.281806 -0.598591 6.850118 0.079520 3.294659 1.625037 3.176522 -7.397238 5.432789 7.939922 17.995288 -6.231630 7.930870 1.967810 -12.752449 -3.195782 2.087307 -54.611321 -7.761838 3.036327 -30.635302 -16.784418 1.581337 -5.136089 3.166914 0.556830 1.439840 -0.291270 0.859930 10.715283 1.698905 2.445888 55.385512 7.833515 -1.347094 32.231352 26.470930 4.613090 1.517283 -1.939051 -0.559900 0.428420 0.456150 0.274310 
0.042770 17.240980 -0.904380 -4.545856 0.291482 11.921090 -15.416181 12.470717 2.914914 -1.605374 -1.142315 -8.430182 -7.558821 3.213474 -0.180182 -0.909786 5.333379 3.680338 -0.096000 -0.787590 -0.389650 18.179557 -10.128145 2.785998 -24.083319 1.280961 -19.341505 2.061992 -3.905123 -0.705470 -0.380618 -4.578249 2.630210 -0.166120 2.101940 1.549940 -3.162815 -1.359837 -6.833190 -0.342249 1.364262 -0.400571 6.999803 0.147263 3.412280 1.691468 3.209643 -7.597921 5.494516 7.808451 18.480666 -6.683060 8.185820 1.776140 -12.947001 -3.732897 2.282384 -54.252387 -7.566529 2.783831 -30.677893 -17.299222 1.634345 -5.138309 3.104529 0.604090 1.427920 -0.291460 0.832850 10.776907 2.268082 2.685536 55.163624 7.847867 -1.583204 31.832525 26.436337 4.525785 1.517325 -1.881274 -0.595540 0.455740 0.473580 0.237410 
0.035040 17.249310 -0.910370 -4.500943 0.253825 11.572218 -15.428669 12.507232 2.934956 -1.668104 -1.095220 -8.129668 -7.291433 3.189016 -0.240256 -0.915801 5.309780 3.681710 -0.097110 -0.807090 -0.344240 18.158415 -10.165169 2.759714 -23.738675 1.242738 -19.159035 1.767337 -3.897011 -0.558666 -0.391335 -4.495143 2.658642 -0.189990 2.052540 1.521090 -3.112262 -1.373889 -6.856748 -0.630877 1.455250 -0.039113 7.134171 0.241637 3.438634 1.782990 3.227125 -7.824933 5.535252 7.627187 19.324879 -6.887350 8.356920 1.078350 -13.143419 -4.254297 2.478433 -53.949306 -7.376232 2.497213 -30.589273 -17.692723 1.663626 -5.087942 3.052578 0.663950 1.376210 -0.257550 0.808670 10.796257 2.886953 2.975957 55.093089 7.844585 -1.904990 31.177485 26.544233 4.425188 1.540243 -1.821376 -0.611050 0.467660 0.465990 0.208140 
0.029750 17.253410 -0.915320 -4.576504 0.177381 11.289276 -15.433460 12.528654 2.943809 -1.712696 -1.048230 -7.844670 -6.868270 3.125027 -0.388519 -0.922017 5.297735 3.686690 -0.115980 -0.836330 -0.341740 18.148365 -10.195478 2.744479 -23.445971 1.229425 -19.035800 1.651295 -3.903737 -0.456473 -0.391101 -4.455547 2.674240 -0.210860 2.042590 1.510430 -3.089923 -1.363748 -6.869080 -0.678097 1.569193 0.176813 7.184465 0.334576 3.620996 1.861765 3.222979 -8.058783 5.542209 7.495024 19.809250 -7.025620 8.387570 0.898970 -13.206669 -4.771812 2.681979 -53.846797 -7.243807 2.195905 -30.272070 -18.224780 1.671911 -5.071744 3.023192 0.693150 1.358220 -0.247130 0.796710 10.696311 3.473776 3.273322 54.964297 7.769124 -2.228497 30.887346 26.916486 4.423028 1.545594 -1.789260 -0.624740 0.476640 0.476350 0.197730 
0.021500 17.253570 -0.915830 -4.614579 0.258500 11.171585 -15.433691 12.540282 2.939029 -1.638083 -1.028841 -7.731629 -6.722574 3.114711 -0.367165 -0.927417 5.306144 3.685756 -0.114470 -0.839870 -0.342820 18.146605 -10.205772 2.735402 -23.257025 1.243913 -18.861856 1.561145 -3.890768 -0.503768 -0.389929 -4.454492 2.684696 -0.211210 2.046040 1.511700 -3.087203 -1.369089 -6.859433 -0.805852 1.617707 0.144509 7.333258 0.364521 3.720053 1.785966 3.225899 -8.101660 5.545791 7.434458 19.844785 -7.018410 8.296500 0.903150 -12.989373 -4.858074 2.729075 -53.974746 -7.343173 2.214824 -30.267570 -18.445552 1.712812 -5.074125 3.023026 0.695830 1.361670 -0.251540 0.797810 10.631389 3.566314 3.304930 54.894085 7.786932 -2.249835 30.550399 26.781660 4.320742 1.537243 -1.783846 -0.626500 0.479210 0.479830 0.194320 
